<svg xmlns="http://www.w3.org/2000/svg" xmlns:xlink="http://www.w3.org/1999/xlink" width="52.80799865722656" height="11.67599868774414" viewBox="0 0 52.80799865722656 11.67599868774414" fill="none">
<g >
<path     fill="#000000"  d="M3.892 -9.53674e-07L3.5 2.828L7.798 2.828L7.126 7.798Q7.014 8.204 6.734 8.47Q6.454 8.736 6.048 8.736L2.38419e-06 8.736L1.204 0.405999L0.938002 -9.53674e-07L3.892 -9.53674e-07ZM3.36 4.172L2.898 7.392L4.494 7.392L4.97 4.172L3.36 4.172ZM12.418 2.828L11.802 7.028L13.482 6.86L14.028 3.22L13.622 2.828L16.716 2.828L15.904 8.736L13.216 8.736L13.3 8.204L8.918 8.736L9.73 3.22L9.324 2.828L12.418 2.828ZM25.634 2.828L24.822 8.736L22.134 8.736L22.806 4.172L21.196 4.172L20.524 8.736L17.836 8.736L18.648 3.22L18.242 2.828L25.634 2.828ZM35 2.828L34.328 7.798Q34.3 8.008 34.188 8.176Q34.076 8.344 33.915 8.47Q33.754 8.596 33.579 8.666Q33.404 8.736 33.25 8.736L29.904 8.736L29.442 11.676L26.754 11.676L28 3.234L27.608 2.828L35 2.828ZM30.562 4.172L30.058 7.518L31.682 7.518L32.172 4.172L30.562 4.172ZM40.012 -9.53674e-07L39.48 3.892L41.23 2.688L44.184 2.688L40.418 5.236L43.372 8.736L40.418 8.736L39.074 6.986L38.808 8.736L36.12 8.736L37.324 0.405999L36.932 -9.53674e-07L40.012 -9.53674e-07ZM49.042 10.332L49.308 8.736L45.01 8.736L45.808 2.828L52.808 2.828L51.73 10.738Q51.674 11.144 51.366 11.41Q51.058 11.676 50.652 11.676L44.604 11.676L44.87 9.8L45.416 10.332L49.042 10.332ZM48.37 4.172L47.866 7.378L49.448 7.378L49.98 4.172L48.37 4.172Z">
</path>
</g>
</svg>
