<svg xmlns="http://www.w3.org/2000/svg" xmlns:xlink="http://www.w3.org/1999/xlink" width="40" height="40" viewBox="0 0 40 40" fill="none">
<g >
<path     fill="#000000"  d="M10.452 7.424L10.06 10.252L14.358 10.252L13.686 15.222Q13.574 15.628 13.294 15.894Q13.014 16.16 12.608 16.16L6.56 16.16L7.764 7.83L7.498 7.424L10.452 7.424ZM9.92 11.596L9.458 14.816L11.054 14.816L11.53 11.596L9.92 11.596ZM18.978 10.252L18.362 14.452L20.042 14.284L20.588 10.644L20.182 10.252L23.276 10.252L22.464 16.16L19.776 16.16L19.86 15.628L15.478 16.16L16.29 10.644L15.884 10.252L18.978 10.252ZM32.194 10.252L31.382 16.16L28.694 16.16L29.366 11.596L27.756 11.596L27.084 16.16L24.396 16.16L25.208 10.644L24.802 10.252L32.194 10.252Z">
</path>
</g>
<g >
<path     fill="#000000"  d="M14.806 23.252L14.134 28.222Q14.106 28.432 13.994 28.6Q13.882 28.768 13.721 28.894Q13.56 29.02 13.385 29.09Q13.21 29.16 13.056 29.16L9.71 29.16L9.248 32.1L6.56 32.1L7.806 23.658L7.414 23.252L14.806 23.252ZM10.368 24.596L9.864 27.942L11.488 27.942L11.978 24.596L10.368 24.596ZM19.818 20.424L19.286 24.316L21.036 23.112L23.99 23.112L20.224 25.66L23.178 29.16L20.224 29.16L18.88 27.41L18.614 29.16L15.926 29.16L17.13 20.83L16.738 20.424L19.818 20.424ZM28.848 30.756L29.114 29.16L24.816 29.16L25.614 23.252L32.614 23.252L31.536 31.162Q31.48 31.568 31.172 31.834Q30.864 32.1 30.458 32.1L24.41 32.1L24.676 30.224L25.222 30.756L28.848 30.756ZM28.176 24.596L27.672 27.802L29.254 27.802L29.786 24.596L28.176 24.596Z">
</path>
</g>
</svg>
